<?xml version="1.0" encoding="UTF-8" standalone="no"?>
<!-- Created with Inkscape (http://www.inkscape.org/) -->

<svg
   version="1.1"
   id="svg1"
   width="258.66666"
   height="258.66666"
   viewBox="0 0 258.66666 258.66666"
   sodipodi:docname="Eni.eps"
   xmlns:inkscape="http://www.inkscape.org/namespaces/inkscape"
   xmlns:sodipodi="http://sodipodi.sourceforge.net/DTD/sodipodi-0.dtd"
   xmlns="http://www.w3.org/2000/svg"
   xmlns:svg="http://www.w3.org/2000/svg">
  <defs
     id="defs1" />
  <sodipodi:namedview
     id="namedview1"
     pagecolor="#ffffff"
     bordercolor="#000000"
     borderopacity="0.25"
     inkscape:showpageshadow="2"
     inkscape:pageopacity="0.0"
     inkscape:pagecheckerboard="0"
     inkscape:deskcolor="#d1d1d1">
    <inkscape:page
       x="0"
       y="0"
       inkscape:label="1"
       id="page1"
       width="258.66666"
       height="258.66666"
       margin="0"
       bleed="0" />
  </sodipodi:namedview>
  <g
     id="g1"
     inkscape:groupmode="layer"
     inkscape:label="1">
    <path
       id="path1"
       d="M 2.59766,1933.23 H 1930.16 V 5.66797 H 2.59766 V 1933.23"
       style="fill:#fddf12;fill-opacity:1;fill-rule:evenodd;stroke:none"
       transform="matrix(0.13333333,0,0,-0.13333333,0,258.66667)" />
    <path
       id="path2"
       d="m 1357.67,614.84 h 128.39 V 740.176 H 1357.67 V 614.84"
       style="fill:#231f20;fill-opacity:1;fill-rule:evenodd;stroke:none"
       transform="matrix(0.13333333,0,0,-0.13333333,0,258.66667)" />
    <path
       id="path3"
       d="m 1431.04,156.293 h 55.02 v 431.035 h -55.02 V 156.293"
       style="fill:#231f20;fill-opacity:1;fill-rule:evenodd;stroke:none"
       transform="matrix(0.13333333,0,0,-0.13333333,0,258.66667)" />
    <path
       id="path4"
       d="M 217.418,837.996 H 1715.34 v 15.289 H 217.418 v -15.289"
       style="fill:#e22739;fill-opacity:1;fill-rule:evenodd;stroke:none"
       transform="matrix(0.13333333,0,0,-0.13333333,0,258.66667)" />
    <path
       id="path5"
       d="m 1357.67,156.293 h 55.03 v 431.035 h -55.03 V 156.293"
       style="fill:#231f20;fill-opacity:1;fill-rule:evenodd;stroke:none"
       transform="matrix(0.13333333,0,0,-0.13333333,0,258.66667)" />
    <path
       id="path6"
       d="m 1305.7,156.293 v 330.156 c 0,67.25 -48.91,116.164 -122.27,116.164 -51.98,0 -88.66,-15.285 -119.23,-45.855 v 30.57 h -55.02 V 471.164 c 30.57,61.137 97.82,79.481 137.56,79.481 45.85,0 103.94,-27.512 103.94,-91.711 V 156.293 h 55.02"
       style="fill:#231f20;fill-opacity:1;fill-rule:evenodd;stroke:none"
       transform="matrix(0.13333333,0,0,-0.13333333,0,258.66667)" />
    <path
       id="path7"
       d="m 1232.34,156.293 v 302.641 c 0,51.968 -42.8,73.367 -85.6,73.367 -48.91,0 -137.56,-24.453 -137.56,-140.621 V 156.293 h 55.02 v 275.129 c 0,30.57 21.4,58.082 61.14,58.082 39.74,0 48.91,-21.399 48.91,-45.852 V 156.293 h 58.09"
       style="fill:#231f20;fill-opacity:1;fill-rule:evenodd;stroke:none"
       transform="matrix(0.13333333,0,0,-0.13333333,0,258.66667)" />
    <path
       id="path8"
       d="m 935.809,156.293 h 58.082 V 587.328 H 935.809 V 156.293"
       style="fill:#231f20;fill-opacity:1;fill-rule:evenodd;stroke:none"
       transform="matrix(0.13333333,0,0,-0.13333333,0,258.66667)" />
    <path
       id="path9"
       d="M 893.012,630.125 V 675.98 H 529.23 V 465.051 h 345.438 v 48.91 H 596.484 v 116.164 h 296.528"
       style="fill:#231f20;fill-opacity:1;fill-rule:evenodd;stroke:none"
       transform="matrix(0.13333333,0,0,-0.13333333,0,258.66667)" />
    <path
       id="path10"
       d="m 902.184,156.293 v 51.973 H 510.891 V 694.32 h 382.121 v 45.856 H 449.75 V 156.293 h 452.434"
       style="fill:#231f20;fill-opacity:1;fill-rule:evenodd;stroke:none"
       transform="matrix(0.13333333,0,0,-0.13333333,0,258.66667)" />
    <path
       id="path11"
       d="m 902.184,226.605 v 51.969 H 593.426 v 122.278 h 281.242 v 45.855 H 529.23 V 226.605 h 372.954"
       style="fill:#231f20;fill-opacity:1;fill-rule:evenodd;stroke:none"
       transform="matrix(0.13333333,0,0,-0.13333333,0,258.66667)" />
    <path
       id="path12"
       d="m 1113.11,1669.5 c 0,6.11 -6.11,15.28 -12.22,15.28 -30.57,18.35 -61.14,-3.05 -91.71,-3.05 -12.235,0 -24.457,-3.06 -30.575,3.05 0,6.11 3.059,6.11 3.059,12.23 -6.117,0 -15.285,3.06 -24.457,3.06 0,0 -18.344,0 -30.57,6.11 -42.797,15.28 -82.535,24.45 -131.449,3.05 -15.286,-6.1 -30.567,-12.22 -45.856,-12.22 -9.168,0 12.231,-15.28 9.172,-24.46 -24.457,-3.05 -48.91,-12.23 -70.309,-30.57 v -3.05 c 15.285,-15.29 36.684,-21.4 61.137,-21.4 6.113,0 21.398,-18.35 58.086,-21.4 51.965,-9.17 82.535,18.34 119.219,3.05 -3.055,6.12 -3.055,9.18 -3.055,15.29 42.797,-12.23 76.418,-9.17 110.048,6.12 30.57,9.16 45.85,51.96 79.48,48.91"
       style="fill:#e22739;fill-opacity:1;fill-rule:evenodd;stroke:none"
       transform="matrix(0.13333333,0,0,-0.13333333,0,258.66667)" />
    <path
       id="path13"
       d="m 1489.12,1100.9 c -6.11,6.11 -15.28,15.28 -21.4,18.34 -15.28,3.06 -15.28,21.4 -21.4,33.63 -9.17,24.45 15.29,18.34 12.23,33.63 -3.06,9.16 -6.11,12.22 -15.28,18.34 0,9.17 9.17,12.22 15.28,12.22 0,6.12 -3.06,9.17 -6.11,12.23 -9.17,3.06 -15.29,3.06 -21.4,6.12 0,6.11 21.4,12.22 18.34,30.57 -6.11,-3.06 -15.29,0 -24.45,3.05 -6.12,6.11 6.11,12.23 3.05,18.35 -15.28,6.11 -30.57,15.28 -45.85,21.39 -15.29,3.06 -12.23,18.34 -18.34,30.57 -18.35,45.86 -30.58,88.66 -64.2,128.39 -6.12,9.18 -9.17,9.18 -18.34,18.35 0,3.05 -3.06,9.17 3.05,12.22 6.12,3.06 15.29,12.23 15.29,18.34 15.28,30.58 15.28,70.32 0,97.83 -18.34,30.57 -45.86,42.8 -76.43,42.8 -45.85,0 -76.42,-36.68 -91.71,-76.43 -21.4,-48.91 -15.28,-73.36 -48.91,-97.82 -3.06,-6.11 -15.28,-9.17 -27.51,3.06 -6.11,6.11 -12.23,18.34 -9.17,27.51 3.06,-3.06 9.17,-12.23 12.23,-12.23 6.11,-6.11 12.23,-6.11 18.34,-3.06 6.11,3.06 9.17,9.18 9.17,18.34 0,9.18 -6.12,18.35 -12.23,24.46 -9.17,9.17 -27.51,6.12 -36.68,0 -15.29,-6.11 -24.46,-24.46 -21.4,-42.8 0,-12.22 9.17,-21.39 12.23,-36.68 0,0 -3.06,-6.11 -6.12,-6.11 -9.17,0 -15.28,3.05 -21.4,12.22 -3.055,3.06 0,9.18 -6.109,9.18 -12.227,-9.18 -9.168,-24.46 -9.168,-36.69 0,-3.06 0,-6.11 -3.059,-6.11 -12.23,12.23 -18.34,21.4 -24.457,36.68 -12.227,-6.11 -12.227,-15.28 -12.227,-24.45 -3.058,-9.18 6.114,-21.4 0,-21.4 -15.285,3.06 -21.398,24.45 -21.398,42.79 -6.117,-3.05 -12.23,-9.17 -15.285,-12.22 -6.113,-9.17 -6.113,-21.4 -18.344,-21.4 -12.23,3.05 -15.285,18.34 -15.285,33.62 -3.055,3.06 -6.113,-3.05 -9.168,-6.11 -9.176,-6.11 -15.285,-18.34 -21.398,-27.51 -9.176,12.23 -9.176,27.51 -12.231,42.8 v 0 c -15.285,-6.12 -30.57,-51.97 -51.969,-51.97 0,0 0,3.06 0,6.11 9.172,12.23 6.118,30.57 6.118,45.86 0,3.05 0,15.28 -6.118,15.28 -9.172,-12.23 -12.226,-18.34 -24.457,-27.51 -12.226,-12.23 -27.511,-21.4 -27.511,-21.4 0,6.11 3.058,12.23 3.058,15.28 3.055,6.12 6.113,15.29 6.113,24.46 0,9.17 -3.058,18.34 -3.058,21.4 0,3.06 0,3.06 -3.055,3.06 0,0 -6.113,-6.12 -24.457,-15.29 -18.34,-12.23 -39.738,-3.06 -42.797,-6.11 0,0 0,-9.17 -3.058,-15.29 -3.059,-9.17 -6.114,-18.34 -12.227,-18.34 -6.113,0 -33.629,18.34 -45.851,15.28 -9.176,-6.11 -27.516,-61.13 -27.516,-61.13 -24.457,3.05 -30.57,9.17 -39.742,24.45 -6.114,3.06 -6.114,-3.05 -6.114,-6.11 -3.054,0 -6.113,-15.29 -6.113,-39.74 0,-6.12 0,-15.29 3.059,-24.46 0,-6.11 0,-12.23 0,-15.28 18.34,-97.83 61.14,-183.42 70.308,-281.25 12.231,-51.96 -36.683,-73.362 -55.023,-110.046 l 3.055,-3.059 c 18.343,0 36.683,0 58.086,0 6.113,0 12.222,6.114 15.281,12.231 3.058,21.398 6.117,48.914 15.285,70.304 21.398,3.06 27.512,27.52 45.852,39.75 0,6.11 -9.168,9.17 -12.223,18.34 6.113,6.11 15.285,12.23 21.398,21.4 3.055,9.17 -9.175,12.23 -9.175,18.34 0,3.05 3.062,6.11 6.117,9.17 3.058,9.17 18.343,9.17 9.172,18.34 -3.059,12.23 -15.289,6.12 -21.399,15.29 3.055,12.23 12.227,27.51 24.453,33.62 -9.168,9.17 -24.453,15.29 -36.683,15.29 0,9.17 0,18.34 0,24.45 l 3.058,3.06 c 18.344,-9.17 30.571,-15.28 48.91,-24.46 -3.054,-15.28 3.059,-27.51 6.114,-42.79 3.058,-21.4 18.343,-36.69 15.285,-58.08 -3.055,-18.35 -21.399,-24.46 -30.567,-33.63 -3.058,-3.06 -12.23,-6.12 -12.23,-12.23 12.23,-15.29 27.512,-24.46 42.797,-36.68 l 3.058,-3.06 c 12.227,15.28 15.286,33.63 24.458,45.85 6.113,3.06 15.281,3.06 21.398,9.18 6.113,0 12.227,3.05 15.281,3.05 -3.054,12.23 -15.281,21.4 -24.453,27.52 6.113,6.11 12.231,6.11 21.399,6.11 3.054,3.05 6.113,3.05 9.171,9.17 -9.171,0 -18.339,9.17 -18.339,18.34 9.168,6.12 24.453,15.29 30.566,33.63 -6.113,6.11 -15.285,6.11 -21.398,9.17 0,9.17 3.054,18.34 6.113,27.51 0,3.06 0,9.17 6.117,9.17 24.453,-6.11 55.023,-6.11 82.535,0 3.059,-3.05 6.113,-3.05 6.113,-6.11 -6.113,-33.63 -18.343,-67.25 -24.453,-100.88 -9.172,-12.23 -24.457,-21.4 -39.742,-30.57 -6.113,-6.11 -18.344,-9.17 -21.398,-21.4 l 45.851,-36.68 h 6.117 c 9.172,12.22 15.282,24.45 24.457,36.68 0,6.11 0,15.29 3.055,18.34 12.231,0 24.457,3.06 33.629,6.12 0,9.17 -9.172,15.28 -15.285,24.45 9.168,3.06 21.398,0 30.566,6.11 3.059,0 9.172,6.12 9.172,15.29 h -9.172 c 0,0 -6.113,0 -3.054,3.06 15.285,3.05 30.57,6.11 42.796,18.34 -3.058,0 -6.113,3.06 -9.171,6.11 3.058,3.06 6.113,3.06 9.171,3.06 9.172,6.12 18.34,15.28 18.34,27.51 -9.168,0 -21.398,3.06 -24.453,9.17 6.113,9.17 15.285,15.29 27.508,15.29 12.23,-30.57 30.57,-61.14 55.03,-88.65 0,-3.06 0,-6.12 0,-9.18 l -48.91,-58.08 c 0,-3.05 -3.06,-9.17 3.06,-9.17 l 67.25,3.06 c 3.05,0 9.17,3.06 9.17,6.11 3.06,18.35 3.06,39.74 6.11,58.08 9.18,6.12 15.29,24.46 30.58,24.46 0,6.12 -9.18,9.17 -15.29,12.23 0,12.23 9.17,18.34 15.29,24.45 -6.12,3.06 -15.29,-6.11 -21.4,0 6.11,3.06 9.16,6.12 15.28,18.35 v 3.05 c -9.17,-3.05 -12.23,0 -18.34,0 -6.12,3.06 -12.23,9.17 -12.23,15.29 6.11,12.23 15.29,21.4 24.45,30.57 3.06,0 6.12,6.11 9.18,0 3.06,-9.17 6.11,-18.34 12.22,-27.51 0,-6.12 0,-12.23 6.12,-18.35 15.28,-9.17 30.57,-24.45 45.86,-42.79 3.05,-9.17 15.28,-18.35 12.22,-33.63 l -39.74,-61.14 -3.06,-6.11 c 3.06,0 3.06,-3.06 6.12,-3.06 l 64.19,15.28 6.12,3.06 -3.06,45.85 c 6.12,9.18 15.29,12.23 24.46,21.4 -3.06,3.06 -6.12,3.06 -9.17,6.12 0,9.17 9.17,9.17 12.22,15.28 0,6.12 -15.28,6.12 -15.28,15.29 9.17,6.11 18.34,15.28 18.34,27.51 -3.06,3.06 -9.17,-3.06 -12.23,-3.06 -3.05,0 -3.05,6.12 -6.11,3.06 -9.17,6.11 -18.34,6.11 -30.57,6.11 -3.06,9.18 -6.11,18.35 -6.11,30.57 h 3.05 c 48.91,-15.28 94.77,-27.51 146.73,-33.62 l 9.18,-6.12 c 21.4,-36.68 36.68,-70.31 61.14,-103.93 6.11,-6.12 12.22,-12.23 12.22,-21.4 -12.22,-21.4 -30.56,-36.69 -45.85,-55.03 l -3.06,-9.17 c 3.06,-3.05 6.12,-3.05 9.17,-6.11 l 61.14,12.22 6.12,3.06 c 0,15.29 6.11,30.57 3.05,45.86 6.12,9.17 18.35,9.17 24.46,18.34 z m -739.788,617.51 -12.227,58.08 c 0,3.06 -6.113,9.17 -9.171,6.12 -45.852,-15.29 -79.481,-30.58 -125.332,-45.86 -3.063,-3.06 -6.118,-3.06 -12.231,0 l -70.312,48.91 c 3.058,-30.57 6.117,-58.08 9.171,-76.43 3.059,-3.05 0,-3.05 -3.054,-3.05 -12.231,0 -24.457,-12.23 -33.629,-24.45 -12.227,-21.41 -24.453,-39.75 -42.797,-48.92 3.059,-9.17 9.168,-15.28 18.344,-18.34 6.113,0 12.226,0 18.34,-3.06 0,-3.05 0,-3.05 -3.055,-6.11 -15.285,-30.57 9.168,-70.31 -21.402,-91.71 12.23,-6.11 30.57,0 42.8,12.23 v 0 c -9.172,-21.4 -12.23,-45.86 -9.172,-67.26 0,-6.11 -3.058,-15.28 -6.113,-21.4 30.567,3.06 51.969,39.75 61.137,70.32 0,-3.06 0,-3.06 0,-3.06 -3.055,-12.23 -12.227,-39.74 0,-55.03 3.059,-3.05 6.113,-9.17 12.23,-9.17 6.114,21.4 15.282,42.8 30.567,55.03 15.289,0 30.574,-9.17 45.855,-12.23 9.172,18.34 -6.113,48.91 -6.113,48.91 v 0 c 0,0 12.23,-12.23 18.344,-18.34 9.168,-6.11 30.57,-9.17 42.797,-3.06 6.113,6.11 12.226,9.17 12.226,15.29 -39.738,-3.06 -42.797,48.91 -61.137,73.36 h 3.055 c 9.168,-6.11 15.285,-18.34 24.457,-24.45 l 55.024,-12.23 6.113,6.12 c 0,9.17 6.117,21.4 3.058,30.56 -6.113,6.12 -9.171,-6.11 -15.285,-6.11 -12.226,6.11 -21.398,6.11 -36.683,12.23 l -27.516,51.97 v 3.05 l 36.688,21.41 c 3.054,-3.06 6.113,-9.18 9.171,-12.23 9.168,3.05 6.114,15.28 9.168,21.39 6.114,0 6.114,-6.11 9.172,-12.22 9.172,0 6.114,15.28 12.227,21.4 3.058,6.11 18.344,6.11 15.285,18.34 z M 1272.07,1583.9 c 9.18,-18.34 3.06,-39.74 -6.11,-51.97 -9.17,-15.29 -27.51,-18.34 -45.85,-15.29 -9.17,3.06 -18.34,9.18 -27.52,15.29 -9.16,-15.29 -27.51,-36.68 -42.79,-48.91 -12.23,-6.11 -27.51,-18.34 -42.8,-18.34 v 6.11 c 30.57,30.57 45.85,79.48 61.14,103.94 12.23,27.51 30.57,42.8 51.97,42.8 18.34,0 45.85,-15.29 51.96,-33.63 z m -632.789,110.05 c 0,-9.17 -6.113,-15.28 -15.281,-15.28 -9.176,0 -15.285,6.11 -15.285,15.28 0,9.18 6.109,15.28 15.285,15.28 9.168,0 15.281,-6.1 15.281,-15.28"
       style="fill:#231f20;fill-opacity:1;fill-rule:evenodd;stroke:none"
       transform="matrix(0.13333333,0,0,-0.13333333,0,258.66667)" />
  </g>
</svg>
